<svg xmlns="http://www.w3.org/2000/svg" viewBox="0 0 40 40"><style>.st0{fill:#333}.st1{fill:#fff}</style><path class="st0" d="M13.2 23.2V10H0v13.2zM14.8 10H28v13.2H14.8zM0 24.8h13.2V38H0zM14.8 24.8H28V38H14.8z"/><path class="st1" d="M18.4 17.2V16h6.1v1.2h-6.1zM18.4 32v-1.2h6V32h-6zm3-2c-.4 0-.8-.4-.8-.8s.4-.8.8-.8.8.3.8.8c0 .4-.4.8-.8.8zm0 4.4c-.4 0-.8-.4-.8-.8s.4-.8.8-.8.8.3.8.8c0 .4-.4.8-.8.8zM6.6 32.3l-1.8 1.8-.9-.9 1.8-1.8-1.8-1.8.8-.8 1.8 1.8 1.8-1.8.9.9-1.8 1.8 1.8 1.8-.9.9-1.7-1.9zM6 17.2H3.4V16H6v-2.6h1.2V16h2.5v1.2H7.2v2.6H6v-2.6z"/></svg>
