<?xml version="1.0" encoding="utf-8"?>
<!-- Generator: Adobe Illustrator 16.0.5, SVG Export Plug-In . SVG Version: 6.00 Build 0)  -->
<!DOCTYPE svg PUBLIC "-//W3C//DTD SVG 1.1//EN" "http://www.w3.org/Graphics/SVG/1.1/DTD/svg11.dtd">
<svg version="1.1" id="Layer_1" xmlns="http://www.w3.org/2000/svg" xmlns:xlink="http://www.w3.org/1999/xlink" x="0px" y="0px"
	 width="100px" height="100px" viewBox="0 0 100 100" enable-background="new 0 0 100 100" xml:space="preserve">
<g>
	<g>
		<path fill="#C41C30" d="M-954.92,48.421l-9.034-27.986l-76.755,24.763l9.031,27.99c0.674,2.09,2.92,3.24,5.014,2.567
			l69.169-22.321C-955.396,52.76-954.248,50.514-954.92,48.421z"/>
		<path fill="#C41C30" d="M-968.07,7.674c-0.676-2.092-2.919-3.243-5.01-2.567l-69.178,22.321c-2.092,0.674-3.244,2.919-2.569,5.011
			l1.231,3.816l76.758-24.767L-968.07,7.674z"/>

			<rect x="-1044.101" y="23.644" transform="matrix(0.9517 -0.3071 0.3071 0.9517 -57.1987 -306.8597)" fill="#FFFFFF" width="80.654" height="9.397"/>
	</g>
	<path fill="#0073CF" d="M-974.522,78.898c0,2.2-1.786,3.984-3.984,3.984h-72.687c-2.202,0-3.983-1.784-3.983-3.984V36.085
		c0-2.2,1.781-3.982,3.983-3.982h72.687c2.198,0,3.984,1.783,3.984,3.982V78.898z"/>
	<g>
		<rect x="-1048.394" y="68.334" fill="#FFFFFF" width="12.809" height="4.375"/>
		<rect x="-1030.303" y="68.334" fill="#FFFFFF" width="12.813" height="4.375"/>
		<rect x="-1012.211" y="68.334" fill="#FFFFFF" width="12.812" height="4.375"/>
		<rect x="-994.117" y="68.334" fill="#FFFFFF" width="12.809" height="4.375"/>
		<path fill="#FFFFFF" d="M-1035.689,63.047c0,1.086-0.877,1.965-1.963,1.965h-8.879c-1.084,0-1.967-0.879-1.967-1.965v-5.751
			c0-1.087,0.883-1.965,1.967-1.965h8.879c1.086,0,1.963,0.878,1.963,1.965V63.047z"/>
	</g>
</g>
<path fill="#C41C30" d="M-755.202-3.624c0,0-26.939,5.377-37.657,23.784c2.405,1.391,4.644,2.977,6.511,4.78
	c3.435,2.896,5.747,7.113,6.098,11.94c0.554,7.716-4.048,14.611-10.878,17.309l-15.449,37.127l7.026-0.292l13.005-34.669
	c6.033,0.679,20.833,0.519,29.837-15.233C-747.891,25.683-755.202-3.624-755.202-3.624z"/>
<path fill="#01AD50" d="M-792.997,20.385c0.044-0.076,0.093-0.148,0.138-0.224c-10.602-6.127-24.482-8.429-24.482-8.429
	s-4.61,21.521,5.271,35.628c0.74,1.166,1.628,2.225,2.61,3.18c0.186,0.181,0.369,0.355,0.548,0.521
	c0.074,0.064,0.146,0.127,0.22,0.191c0.322,0.281,0.642,0.532,0.949,0.744c3.201,2.372,7.227,3.665,11.51,3.355
	c1.798-0.13,3.511-0.532,5.104-1.162l0.151-0.365C-794.62,48.976-801.997,36.139-792.997,20.385z"/>
<path fill="#C41C30" d="M-780.251,36.881c-0.351-4.827-2.663-9.045-6.098-11.94c-1.867-1.803-4.105-3.389-6.511-4.78
	c-0.045,0.076-0.094,0.148-0.138,0.224c-9,15.754-1.623,28.591,2.02,33.44l-0.151,0.365
	C-784.299,51.492-779.697,44.597-780.251,36.881z"/>
<path fill="#0A703A" d="M-780.251,36.881c-0.351-4.827-2.663-9.045-6.098-11.94c-1.867-1.803-4.105-3.389-6.511-4.78
	c-0.045,0.076-0.094,0.148-0.138,0.224c-9,15.754-1.623,28.591,2.02,33.44l-0.151,0.365
	C-784.299,51.492-779.697,44.597-780.251,36.881z"/>
<g>
	<path fill="#C41C30" d="M-782.461,64.447c-1.392,0-2.507-1.104-2.507-2.467c0-1.375,1.101-2.481,2.507-2.481
		c1.388,0,2.501,1.106,2.501,2.481C-779.96,63.344-781.073,64.447-782.461,64.447z M-782.461,59.853
		c-1.185,0-2.138,0.96-2.138,2.127c0,1.161,0.938,2.119,2.138,2.119c1.221,0,2.13-0.958,2.13-2.119
		C-780.331,60.813-781.263,59.853-782.461,59.853z M-781.786,63.458l-0.582-1.301h-0.526v1.301h-0.452v-3.02h1.032
		c0.581,0,0.948,0.28,0.948,0.85c0,0.26-0.163,0.64-0.558,0.805l0.632,1.365H-781.786z M-782.346,60.771h-0.549v1.05h0.538
		c0.277,0,0.537-0.095,0.537-0.524C-781.819,60.917-782.068,60.771-782.346,60.771z"/>
</g>
<path fill="#C41C30" d="M-1213.212,40.626c-0.076-14.642-10.809-26.727-24.849-28.821c0.092-0.349,0.152-0.714,0.152-1.095
	c0-2.473-1.995-4.477-4.463-4.477c-2.483,0-4.476,2.004-4.476,4.477c0,0.381,0.059,0.746,0.153,1.099
	c-14.069,2.093-24.925,14.176-24.848,28.818c0.166,29.808-12.737,26.122-12.737,35.195c0,14.018,14.618,8.577,33.961,7.104
	c1.361-2.663,4.401-4.521,7.939-4.521c3.545,0,6.586,1.858,7.947,4.521c19.339,1.472,33.958,6.916,33.958-7.104
	C-1200.476,66.748-1213.055,71.818-1213.212,40.626z"/>
<path fill="#DC1F33" d="M-1250.32,82.925c-0.487,0.954-0.764,2.008-0.764,3.12c0,4.22,3.898,7.639,8.704,7.639
	c4.815,0,8.711-3.419,8.711-7.639c0-1.112-0.277-2.167-0.765-3.12c-2.571-0.196-5.224-0.324-7.939-0.324
	C-1245.091,82.601-1247.746,82.729-1250.32,82.925z"/>
<path fill="#B51F31" d="M-1242.38,78.404c-3.539,0-6.579,1.858-7.939,4.521c2.574-0.196,5.229-0.324,7.947-0.324
	c2.715,0,5.368,0.128,7.939,0.324C-1235.794,80.262-1238.835,78.404-1242.38,78.404z"/>
<polygon fill="#C41C30" points="-521.743,46.453 -551.498,46.453 -558.585,55.198 -565.273,46.453 -592.21,46.453 -592.21,63.22
	-533.284,52.831 -528.195,81.682 -521.743,81.682 "/>
<polygon fill="#C41C30" points="-592.602,89.565 -593.237,85.955 -569,81.682 -592.21,81.682 -592.21,63.22 -602.678,65.066
	-596.557,99.765 -527.165,87.524 -528.195,81.682 -547.893,81.682 "/>
<path fill="#C41C30" d="M-592.21,63.22v18.461H-569l34.214-6.033l0.634,3.61l-13.741,2.423h19.698l-5.089-28.851L-592.21,63.22z
	 M-558.738,74.177l-0.956-5.419l22.848-4.029l0.954,5.423L-558.738,74.177z"/>
<path fill="#B51F31" d="M-592.21,63.22v18.461H-569l34.214-6.033l0.634,3.61l-13.741,2.423h19.698l-5.089-28.851L-592.21,63.22z
	 M-558.738,74.177l-0.956-5.419l22.848-4.029l0.954,5.423L-558.738,74.177z"/>
<rect x="-550.545" y="57.857" transform="matrix(-0.1737 -0.9848 0.9848 -0.1737 -711.3687 -457.9391)" fill="#FFFFFF" width="5.503" height="23.198"/>
<polygon fill="#FFFFFF" points="-592.602,89.565 -547.893,81.682 -569,81.682 -593.237,85.955 "/>
<polygon fill="#FFFFFF" points="-534.152,79.259 -534.786,75.649 -569,81.682 -547.893,81.682 "/>
<path fill="#C41C30" d="M-541.218,33.768l-8.391-0.087l-0.042-0.903c-0.933-20.054-20.41-23.05-31.937-23.05
	c-1.009,0-1.934,0.023-2.76,0.06c9.071,3.891,17.572,9.734,17.572,23.104v0.962l-8.168-0.042l9.669,12.642h13.776L-541.218,33.768z"
	/>
<polygon fill="#C41C30" points="-551.498,46.453 -565.273,46.453 -558.585,55.198 "/>
<polygon fill="#B51F31" points="-551.498,46.453 -565.273,46.453 -558.585,55.198 "/>
<g>
	<path fill="#C41C30" d="M-763.056-257.738c-0.222,0-0.435,0.045-0.632,0.126v-9.241c0-1.608-1.318-2.93-2.924-2.93h-4.49
		c-1.083-0.992-3.81-3.926-5.032-9.276l-0.672-4.262v-0.54h-0.02c-0.016-0.311-0.121-0.61-0.299-0.897h-28.895
		c-0.147,0.261-0.232,0.538-0.249,0.82h-0.017v0.534l-0.674,4.266c-1.245,5.485-4.09,8.438-5.114,9.355h-3.451
		c-1.607,0-2.927,1.321-2.927,2.93v56.512c0,1.61,1.319,2.927,2.927,2.927h3.535c0.538,0.434,3.993,3.393,5.408,9.608l0.676,4.266
		v0.537h0.02c0.016,0.282,0.098,0.558,0.247,0.819h28.896c0.172-0.287,0.282-0.586,0.298-0.896h0.018v-0.54l0.675-4.261
		c1.346-5.903,4.534-8.876,5.315-9.533h3.825c1.605,0,2.924-1.317,2.924-2.927v-12.803c0.99-0.066,1.773-0.884,1.773-1.889v-17.241
		c0-1.006-0.783-1.822-1.773-1.887v-4.575c0.197,0.077,0.41,0.127,0.632,0.127c0.913,0,1.648-0.739,1.648-1.652v-5.831
		C-761.407-257.001-762.143-257.738-763.056-257.738z"/>
	<path fill="#FFFFFF" d="M-767.03-213.354c0,0.965-0.79,1.755-1.754,1.755h-44.361c-0.965,0-1.754-0.79-1.754-1.755v-50.999
		c0-0.966,0.789-1.755,1.754-1.755h44.361c0.964,0,1.754,0.789,1.754,1.755V-213.354z"/>
	<path fill="#DC1F33" d="M-776.239-239.359c0,8.193-6.64,14.833-14.826,14.833c-8.196,0-14.832-6.64-14.832-14.833
		c0-8.189,6.636-14.829,14.832-14.829C-782.879-254.188-776.239-247.548-776.239-239.359z"/>
	<path fill="#FFFFFF" d="M-794.998-235.54c3.917-2.709,8.264-4.821,12.903-6.212c-0.789-0.4-1.591-0.77-2.402-1.12
		c-4.717,1.248-9.157,3.261-13.155,5.915C-796.752-236.514-795.868-236.039-794.998-235.54"/>
	<path fill="#FFFFFF" d="M-786.011-242.944c-1.813-0.791-3.681-1.447-5.597-1.973c-0.604,0.125-1.211,0.263-1.808,0.425
		c1.898,0.547,3.737,1.248,5.52,2.089C-787.273-242.596-786.647-242.777-786.011-242.944"/>
	<path fill="#FFFFFF" d="M-791.207-233.073c3.634-2.876,7.65-5.268,11.988-7.09c-0.71-0.43-1.433-0.837-2.157-1.228
		c-4.546,1.535-8.79,3.713-12.643,6.441C-793.059-234.363-792.116-233.735-791.207-233.073"/>
	<path fill="#FFFFFF" d="M-793.592-241.998c-2.168,0.835-4.253,1.84-6.248,3c0.69,0.31,1.38,0.646,2.054,1.002
		c2.004-1.192,4.091-2.234,6.261-3.113C-792.208-241.426-792.892-241.715-793.592-241.998"/>
	<path fill="#FFFFFF" d="M-794.427-242.308c-0.571-0.213-1.155-0.415-1.752-0.598c-2.247,0.714-4.414,1.641-6.457,2.777
		c0.649,0.237,1.295,0.482,1.936,0.752C-798.708-240.542-796.607-241.531-794.427-242.308"/>
	<path fill="#FFFFFF" d="M-788.893-242.084c-1.776-0.852-3.606-1.578-5.494-2.147c-0.667,0.191-1.319,0.398-1.976,0.629
		c1.944,0.571,3.84,1.298,5.654,2.174C-790.11-241.661-789.501-241.881-788.893-242.084"/>
</g>
<g>
</g>
<g>
</g>
<path fill-rule="evenodd" clip-rule="evenodd" fill="#D0C8BE" d="M-1260.521-213.223v-63.584h41.512v63.584H-1260.521z
	 M-1213.952-277.949c0-4.15-3.375-7.549-7.507-7.549h-36.634c-4.108,0-7.484,3.398-7.484,7.549v78.471c0,4.15,3.376,7.55,7.484,7.55
	h36.634c4.132,0,7.507-3.399,7.507-7.55V-277.949z"/>
<g>
	<path fill="#E11D41" d="M-1239.249-233.852c-0.279-0.042-0.561,0-0.773,0.15l-0.215,0.218c1.527,1.503,2.386,5.226,2.475,7.417
		c0.495-0.085,0.966-0.192,1.44-0.344c-0.13-2.58-0.495-4.903-2.022-6.88C-1238.452-233.443-1238.775-233.786-1239.249-233.852z"/>
	<path fill="#E11D41" d="M-1241.14-237.509c-3.012,1.054-2.409,7.637-1.979,10.626c0.494,0.238,1.01,0.431,1.547,0.582
		c-0.644-3.828-0.795-9.229,0.904-9.83c1.679-0.582,5.334,4.171,7.505,7.873c0.561-0.065,0.906-0.455,1.075-1.011
		C-1233.721-232.001-1238.022-238.585-1241.14-237.509z"/>
	<path fill="#E11D41" d="M-1234.15-236.928c-2.474-3.182-5.184-5.505-8.626-3.635c-2.923,1.592-3.355,8.431-3.355,11.55
		c0.474,0.755,0.883,1.205,1.462,1.205c-0.128-3.958,0.475-10.323,2.517-11.442c2.409-1.292,4.301-0.087,6.862,3.227l0.495,0.623
		c1.957,2.519,3.204,4.174,3.721,4.883c0.452-0.107,0.818-0.772,0.818-1.312c-0.624-0.86-1.764-2.365-3.401-4.452L-1234.15-236.928z
		"/>
	<path fill="#E11D41" d="M-1234.28-240.326c-1.31-1.613-4.043-5.012-9.1-3.248c-4.085,1.418-4.84,8.304-4.945,11.938
		c0.344,1.01,0.6,1.461,1.442,1.848c-0.11-3.331,0.387-11.163,3.978-12.411c4.108-1.441,6.239,1.227,7.506,2.797l0.388,0.45
		c0.945,1.096,3.85,4.84,5.12,6.476c0.494-0.278,0.882-0.643,0.665-1.484c-1.396-1.827-3.827-4.926-4.71-5.936L-1234.28-240.326z"/>
	<path fill="#E11D41" d="M-1235.894-244.973c-4.086-3.077-8.969-1.763-11.486,1.056c-1.849,2.063-2.709,5.42-3.095,7.893
		c0.021,1.031,0.472,1.87,1.139,2.666c0.129-1.656,0.667-6.948,3.033-9.57c2.087-2.345,6.151-3.44,9.55-0.882
		c3.615,2.729,6.907,7.637,7.832,9.079c0.278-0.388,0.643-0.647,0.538-1.81C-1229.827-238.669-1232.667-242.543-1235.894-244.973z"
		/>
	<path fill="#E11D41" d="M-1242.712-247.598l0.153-0.019c4.537-0.152,6.238-0.218,14.54,9.292c0.279-0.281,0.386-1.205,0.212-1.936
		c-8-9.037-10.064-8.971-14.795-8.797h-0.174c-4.195,0.149-7.251,4.256-8.927,7.246c-0.192,0.84-0.064,1.702,0.346,2.497
		C-1250.219-241.748-1247.1-247.445-1242.712-247.598z"/>
	<path fill="#E11D41" d="M-1243.635-250.352c4.15-0.452,6.904-0.73,15.895,8.346c0.236-0.601,0.236-0.837,0.106-1.568
		c-0.02-0.128-0.213-0.431-0.234-0.583c-8.153-8.021-11.293-8.148-15.939-7.635c-3.227,0.345-6.001,2.495-7.723,4.066
		c-0.453,0.625-0.558,1.313-0.364,2.412C-1250.475-246.906-1247.465-249.941-1243.635-250.352z"/>
	<path fill="#E11D41" d="M-1240.668-252.997c7.249,0.753,11.959,6.67,12.713,7.637c0.215-0.753,0-1.872-0.538-2.774
		c-2.195-2.193-6.346-5.721-12.025-6.302c-4-0.409-7.033,0.753-9.143,1.42c-0.559,0.56-0.904,1.053-0.794,1.829
		C-1248.585-251.964-1245.359-253.471-1240.668-252.997z"/>
	<path fill="#E11D41" d="M-1239.547-255.384c3.696,0.989,5.718,2.065,10.28,5.162c0-0.966-0.625-1.89-1.185-2.538
		c-3.418-2.214-5.421-3.141-8.71-4.044c-2.496-0.667-5.571-0.387-7.722-0.045c-0.689,0.239-1.442,0.929-1.553,1.765
		C-1246.776-255.429-1242.56-256.202-1239.547-255.384z"/>
	<path fill="#E11D41" d="M-1239.183-258.052c1.677,0.409,6.172,2.43,7.571,3.528c-2.387-2.862-6.15-5.356-9.445-5.097
		c-1.656,0.128-3.227,0.73-4.601,1.718l-0.194,0.197C-1245.808-257.705-1242.518-258.849-1239.183-258.052z"/>
</g>
<g>
</g>
<g>
</g>
<g>
</g>
<g>
</g>
<g>
</g>
<g>
</g>
<g>
</g>
<g>
</g>
<g>
</g>
<g>
</g>
<g>
</g>
<g>
</g>
<g>
</g>
<g>
</g>
<g>
</g>
<g>
</g>
<g>
</g>
<g>
</g>
<g>
</g>
<g>
</g>
<g>
</g>
<g>
</g>
<g>
</g>
<g>
</g>
<g>
</g>
<g>
</g>
<g>
</g>
<g>
</g>
<polygon fill="none" points="-1194.672,336.773 -1194.672,331.949 -1230.194,331.949 -1225.99,336.773 "/>
<rect x="-1225.351" y="317.348" fill="none" width="30.499" height="7.235"/>
<polygon fill="none" points="-1272.722,331.949 -1272.722,336.773 -1244.972,336.773 -1244.961,331.949 "/>
<path fill="#C41C30" d="M-1187.516,302.745h-92.665v46.329h35.183l0.026-12.301h-27.75v-4.824h27.761l0.036-16.903l14.73,16.903
	h35.522v4.824h-31.318l10.72,12.301h27.755V302.745z M-1194.853,324.583h-30.499v-7.235h30.499V324.583z"/>
<g>
	<polygon fill="#C41C30" points="-1245.021,360.14 -1234.804,352.998 -1228.257,370.666 -1221.097,368.002 -1227.643,350.347
		-1215.251,349.097 -1215.271,349.074 -1244.998,349.074 	"/>
</g>
<g>
	<polygon fill="#C41C30" points="-1230.194,331.949 -1244.961,331.949 -1244.972,336.773 -1225.99,336.773 	"/>
</g>
<g>
	<polygon fill="#B51F31" points="-1244.972,336.773 -1244.998,349.074 -1215.271,349.074 -1225.99,336.773 	"/>
</g>
<g>
	<polygon fill="#B51F31" points="-1244.925,315.046 -1244.961,331.949 -1230.194,331.949 	"/>
</g>
<g>
	<g>
		<path fill="#C41C30" d="M-512.96,301.576c0-17.967-14.564-32.529-32.528-32.529c-16.819,0-30.655,12.761-32.356,29.129h3.133
			c1.686-14.646,14.125-26.017,29.224-26.017c16.246,0,29.417,13.17,29.417,29.417c0,14.112-9.934,25.9-23.19,28.761v3.176
			C-524.275,330.604-512.96,317.414-512.96,301.576z"/>
		<path fill="#C41C30" d="M-521.471,301.576c0-13.266-10.752-24.021-24.019-24.021c-12.116,0-22.131,8.964-23.781,20.62h3.386
			c1.621-9.797,10.136-17.272,20.396-17.272c11.418,0,20.674,9.255,20.674,20.673c0,9.247-6.073,17.077-14.446,19.717v3.485
			C-529.017,322.039-521.471,312.688-521.471,301.576z"/>
		<path fill="#C41C30" d="M-530.013,301.576c0-8.546-6.929-15.478-15.477-15.478c-7.377,0-13.551,5.168-15.098,12.078h3.336
			c1.475-5.108,6.181-8.841,11.76-8.841c6.762,0,12.244,5.479,12.244,12.241c0,4.487-2.418,8.409-6.015,10.54v3.631
			C-533.817,313.348-530.013,307.909-530.013,301.576z"/>
	</g>
	<path fill-rule="evenodd" clip-rule="evenodd" fill="#C41C30" d="M-547.225,388.256c4.018,0,7.308-3.243,7.313-7.219l-0.012-74.954
		c0-3.967-3.284-7.221-7.308-7.217h-35.729c-4.012,0-7.299,3.25-7.299,7.221v74.956c0,3.97,3.287,7.213,7.301,7.213H-547.225z"/>
	<rect x="-585.819" y="307.063" fill-rule="evenodd" clip-rule="evenodd" fill="#FFFFFF" width="41.197" height="61.4"/>
	<g>
		<path fill="#0073CF" d="M-550.554,309.796c1.523,0,2.757,1.242,2.757,2.773v50.629c0,1.534-1.233,2.776-2.757,2.776h-29.639
			c-1.525,0-2.762-1.242-2.762-2.776v-50.629c0-1.531,1.236-2.773,2.762-2.773H-550.554z"/>
		<g>
			<rect x="-557.864" y="352.325" fill="#FFFFFF" width="3.027" height="8.924"/>
			<rect x="-557.864" y="339.722" fill="#FFFFFF" width="3.027" height="8.924"/>
			<rect x="-557.864" y="327.123" fill="#FFFFFF" width="3.027" height="8.921"/>
			<rect x="-557.864" y="314.522" fill="#FFFFFF" width="3.027" height="8.924"/>
			<path fill="#FFFFFF" d="M-561.527,352.397c0.753,0,1.36,0.61,1.36,1.373v6.18c0,0.756-0.607,1.371-1.36,1.371h-3.981
				c-0.752,0-1.361-0.615-1.361-1.371v-6.18c0-0.763,0.609-1.373,1.361-1.373H-561.527z"/>
		</g>
	</g>
</g>
<g>
	<path fill="#C41C30" d="M-526.676,636.208v-43.965v-1.074c0-1.781-1.439-3.217-3.218-3.217h-37.445h-0.082h-37.447
		c-1.774,0-3.218,1.436-3.218,3.217v1.074v43.965l-8.859,9.057v3.746c0,0,0,3.219,3.216,3.219h46.309h0.082h46.313
		c3.212,0,3.212-3.219,3.212-3.219v-3.746L-526.676,636.208z M-532.563,633.526h-34.775h-0.082h-34.771v-39.682h34.771h0.082h34.775
		V633.526z"/>
	<path fill="#FFFFFF" d="M-534.662,574.165c10.626,0,19.266,8.639,19.266,19.264c0,10.625-8.64,19.275-19.266,19.275
		c-10.623,0-19.272-8.65-19.272-19.275C-553.935,582.804-545.285,574.165-534.662,574.165z M-526.57,578.766
		c-0.741,0-1.899,0.468-2.318,1.208c-0.55,0.943-4.6,8.016-4.868,8.422c0,0.014-0.024,0.014-0.024,0.025l-0.015,0.012
		c-0.598,0.373-7.108-0.088-9.26,0.498c-2.612,0.701-3.758,2.178-4.025,2.572c-0.269,0.396,1.07,0.217,7.49,1.172
		c0.863,0.129,1.746,0.459,2.28,0.717c0.306,0.162,0.483,0.318,0.421,0.48c-0.178,0.434-2.549,5.137-2.866,5.822
		c-0.332,0.689-3.594,0.934-4.192,1.199c-0.609,0.268-2.764,1.771-2.777,1.986c0,0.012,0.026,0.025,0.077,0.039
		c0.624,0.229,5.63-0.664,6.649,0.014l0.014-0.014v0.025c1.095,0.535,2.826,5.326,3.338,5.76c0.036,0.023,0.065,0.035,0.075,0.035
		c0.179-0.127,0.409-2.738,0.332-3.4c-0.077-0.65-1.491-3.605-1.058-4.229c0.433-0.611,3.314-5.021,3.607-5.389
		c0.111-0.141,0.328-0.064,0.621,0.127c0.484,0.33,1.224,0.918,1.771,1.605c4.028,5.08,4.536,6.33,4.742,5.91
		c0.216-0.432,0.929-2.166,0.228-4.791c-0.573-2.15-4.217-7.555-4.202-8.254l0.012-0.012c0-0.016,0-0.025,0-0.039
		c0.215-0.434,4.318-7.478,4.866-8.421c0.523-0.918,0.141-2.584-0.396-2.956v-0.01c-0.011,0-0.011,0-0.011,0s0,0-0.014,0
		c0-0.016,0-0.016,0-0.016h-0.012c0,0,0,0,0-0.012h-0.014c0,0,0,0-0.012,0c0,0,0,0-0.014,0c0-0.013,0-0.013,0-0.013
		c-0.013,0-0.013,0-0.013,0C-526.253,578.789-526.392,578.766-526.57,578.766z"/>
	<g>
		<path fill="#0073CF" d="M-543.056,588.931c2.151-0.586,8.662-0.125,9.26-0.498l0.015-0.012c0-0.012,0.024-0.012,0.024-0.025
			c0.269-0.406,4.318-7.479,4.868-8.422c0.419-0.74,1.577-1.208,2.318-1.208c0.179,0,0.317,0.023,0.433,0.076c0,0,0,0,0.013,0
			c0,0,0,0,0,0.013c0.014,0,0.014,0,0.014,0c0.012,0,0.012,0,0.012,0h0.014c0,0.012,0,0.012,0,0.012h0.012c0,0,0,0,0,0.016
			c0.014,0,0.014,0,0.014,0s0,0,0.011,0v0.01c0.537,0.371,0.92,2.037,0.396,2.956c-0.548,0.943-4.651,7.988-4.866,8.421
			c0,0.014,0,0.023,0,0.039l-0.012,0.012c-0.015,0.699,3.629,6.104,4.202,8.254c0.701,2.625-0.012,4.359-0.228,4.791
			c-0.206,0.42-0.714-0.83-4.742-5.91c-0.547-0.688-1.286-1.275-1.771-1.605c-0.293-0.191-0.51-0.268-0.621-0.127
			c-0.293,0.367-3.175,4.777-3.607,5.389c-0.434,0.623,0.98,3.578,1.058,4.229c0.077,0.662-0.153,3.273-0.332,3.4
			c-0.01,0-0.039-0.012-0.075-0.035c-0.512-0.434-2.243-5.225-3.338-5.76v-0.025l-0.014,0.014c-1.02-0.678-6.025,0.215-6.649-0.014
			c-0.051-0.014-0.077-0.027-0.077-0.039c0.014-0.215,2.168-1.719,2.777-1.986c0.599-0.266,3.86-0.51,4.192-1.199
			c0.317-0.686,2.688-5.389,2.866-5.822c0.063-0.162-0.115-0.318-0.421-0.48c-0.534-0.258-1.417-0.588-2.28-0.717
			c-6.42-0.955-7.759-0.775-7.49-1.172C-546.813,591.108-545.668,589.632-543.056,588.931z"/>
		<path fill="#0073CF" d="M-557.757,593.429c0-12.729,10.355-23.086,23.095-23.086c12.729,0,23.087,10.356,23.087,23.086
			c0,12.738-10.357,23.096-23.087,23.096C-547.401,616.524-557.757,606.167-557.757,593.429z M-553.935,593.429
			c0,10.625,8.649,19.275,19.272,19.275c10.626,0,19.266-8.65,19.266-19.275c0-10.625-8.64-19.264-19.266-19.264
			C-545.285,574.165-553.935,582.804-553.935,593.429z"/>
	</g>
</g>
<g>
	<rect x="-1269.148" y="570.504" fill="none" width="42.184" height="64.026"/>
	<g>
		<polygon fill="none" points="-1262.175,596.591 -1260.49,601.077 -1241.611,593.999 -1243.29,589.522 		"/>
		<polygon fill="none" points="-1238.671,601.505 -1239.792,598.521 -1269.148,609.517 -1269.148,612.919 		"/>
		<path fill="#0073CF" d="M-1242.138,578.777l-27.01,10.12v20.619l29.355-10.996l1.122,2.984l-30.477,11.414v8.689l37.759-14.146
			L-1242.138,578.777z M-1260.49,601.077l-1.685-4.486l18.885-7.068l1.679,4.477L-1260.49,601.077z"/>
	</g>
	<path fill="#C41C30" d="M-1221.839,569.366c0-4.183-3.416-7.606-7.606-7.604h-37.222c-4.178,0-7.606,3.422-7.606,7.615v21.44
		l-25.229,9.453l10.749,28.682l14.48-5.424v24.83c0,4.184,3.428,7.604,7.611,7.604h37.22c4.188,0,7.613-3.42,7.618-7.605
		L-1221.839,569.366z M-1269.148,634.53v-64.026h42.184l0.003,64.026H-1269.148z M-1286.993,619.603l-1.119-2.982l13.838-5.184
		v3.402L-1286.993,619.603z"/>
	<g>
		<path fill="#0073CF" d="M-1192.305,665.61l-3.989-6.066c0,0-0.552-27.869-4.955-36.033c-1.995-3.699-11.959-9.838-20.579-14.648
			v20.152c-0.002,0.541-0.048,3.607-2.626,4.863l-1.312,0.625l-2.237-4.658c-1.37-2.773-6.678-12.488-12.428-9.729
			c-4.995,2.396-0.412,10.916-0.412,10.916l13.767,28.695c2.208,3.602,7.69,8.893,11.526,10.191l4.527,6.543
			c0,0,4.005,2.338,11.54-1.287C-1191.938,671.554-1192.305,665.61-1192.305,665.61z"/>
	</g>
</g>
<polygon fill="#C41C30" points="-776.812,343.366 -818.175,343.366 -818.175,341.977 -818.175,331.395 -840.934,354.14
	-818.175,376.89 -818.175,364.911 -776.812,364.911 "/>
<polygon fill="#0073CF" points="-744.454,340.565 -767.212,317.817 -767.212,328.401 -767.212,329.803 -809.173,329.803
	-809.173,351.342 -767.212,351.342 -767.212,363.32 "/>
<path fill="none" d="M-973.252-265.71c-3.039,0-5.514,2.473-5.514,5.512v2.832h11.025v-2.832
	C-967.74-263.237-970.211-265.71-973.252-265.71z"/>
<path fill="#C41C30" d="M-990.073-233.471v-20.245h-59.067c-2.278,0-4.123,1.847-4.123,4.124v44.312
	c0,2.275,1.845,4.122,4.123,4.122h75.226c2.274,0,4.121-1.847,4.121-4.122v-25.729h-17.817
	C-988.969-231.01-990.073-232.111-990.073-233.471z M-1046.351-227.591c0-1.123,0.909-2.032,2.033-2.032h9.188
	c1.126,0,2.036,0.909,2.036,2.032v5.952c0,1.124-0.91,2.034-2.036,2.034h-9.188c-1.124,0-2.033-0.91-2.033-2.034V-227.591z
	 M-1032.988-211.634h-13.257v-4.531h13.257V-211.634z M-1014.263-211.634h-13.258v-4.531h13.258V-211.634z M-995.539-211.634h-13.26
	v-4.531h13.26V-211.634z M-976.814-211.634h-13.259v-4.531h13.259V-211.634z"/>
<path fill="#C41C30" d="M-969.808-237.417l-1.867-7.052c0.905-0.541,1.517-1.519,1.517-2.648c0-1.71-1.385-3.095-3.094-3.095
	s-3.096,1.385-3.096,3.095c0,1.129,0.611,2.106,1.516,2.648l-1.866,7.052H-969.808z"/>
<rect x="-1046.245" y="-216.165" fill="#FFFFFF" width="13.257" height="4.531"/>
<rect x="-1027.521" y="-216.165" fill="#FFFFFF" width="13.258" height="4.531"/>
<rect x="-1008.799" y="-216.165" fill="#FFFFFF" width="13.26" height="4.531"/>
<rect x="-990.073" y="-216.165" fill="#FFFFFF" width="13.259" height="4.531"/>
<path fill="#FFFFFF" d="M-1044.317-219.604h9.188c1.126,0,2.036-0.91,2.036-2.034v-5.952c0-1.123-0.91-2.032-2.036-2.032h-9.188
	c-1.124,0-2.033,0.909-2.033,2.032v5.952C-1046.351-220.515-1045.441-219.604-1044.317-219.604z"/>
<path fill="#0073CF" d="M-958.896-257.366h-2.691v-2.832c0-6.433-5.233-11.667-11.665-11.667s-11.666,5.233-11.666,11.667v2.832
	h-2.693c-1.357,0-2.462,1.104-2.462,2.461v1.189h16.158c2.274,0,4.121,1.847,4.121,4.124v18.582h10.898
	c1.36,0,2.46-1.101,2.46-2.461v-21.435C-956.436-256.263-957.535-257.366-958.896-257.366z M-967.74-257.366h-11.025v-2.832
	c0-3.04,2.475-5.512,5.514-5.512c3.041,0,5.512,2.473,5.512,5.512V-257.366z"/>
<path fill="#C41C30" d="M-973.915-253.716h-16.158v20.245c0,1.36,1.104,2.461,2.462,2.461h17.817v-18.582
	C-969.794-251.869-971.641-253.716-973.915-253.716z M-976.348-247.117c0-1.71,1.387-3.095,3.096-3.095s3.094,1.385,3.094,3.095
	c0,1.129-0.611,2.107-1.517,2.648l1.867,7.052h-6.891l1.866-7.052C-975.736-245.011-976.348-245.988-976.348-247.117z"/>
<path fill="#27618E" d="M-973.915-253.716h-16.158v20.245c0,1.36,1.104,2.461,2.462,2.461h17.817v-18.582
	C-969.794-251.869-971.641-253.716-973.915-253.716z M-976.348-247.117c0-1.71,1.387-3.095,3.096-3.095s3.094,1.385,3.094,3.095
	c0,1.129-0.611,2.107-1.517,2.648l1.867,7.052h-6.891l1.866-7.052C-975.736-245.011-976.348-245.988-976.348-247.117z"/>
<g>
	<g>
		<polygon fill="#C41C30" points="-568.523,-224.619 -614.332,-252.761 -614.332,-200.551 -522.712,-200.551 -522.712,-252.761
			"/>
	</g>
	<g>
		<polygon fill="#C41C30" points="-522.712,-257.948 -614.332,-257.948 -568.523,-229.807 		"/>
	</g>
</g>
<g>
	<g>
		<path fill="#C41C30" d="M-545.854-229.245c0,12.518-10.144,22.662-22.664,22.662c-12.529,0-22.673-10.144-22.673-22.662
			c0-12.528,10.144-22.674,22.673-22.674C-555.997-251.918-545.854-241.772-545.854-229.245z"/>
	</g>
	<g>
		<path fill="#FFFFFF" d="M-553.781-230.496c0,5.504-3.586,8.527-7.852,8.527c-1.772,0-3.995-0.683-4.787-2.415
			c-1.327,1.391-3.283,2.074-4.981,2.074c-3.777,0-4.568-2.72-4.568-4.453c0-3.547,2.532-4.037,8.869-4.716v-0.566
			c0-1.619-0.416-2.263-2.305-2.263c-1.242,0-2.866,0.266-4.41,0.716l-0.797-2.829c1.85-0.716,4.004-1.13,6.078-1.13
			c3.316,0,5.619,1.206,5.619,5.017v5.658c0,1.058,0.564,1.774,2.039,1.774c1.583,0,3.695-1.473,3.695-5.17
			c0-6.416-4.186-10.49-11.088-10.49c-7.02,0-12.64,4.982-12.64,11.507c0,6.641,4.903,11.548,11.618,11.548
			c1.4,0,3.097-0.153,5.432-0.948l1.058,2.755c-1.963,0.943-4.451,1.36-6.454,1.36c-9.391,0-15.052-6.189-15.052-14.638
			c0-8.49,6.98-14.792,16.038-14.792C-559.219-243.969-553.781-238.609-553.781-230.496z M-571.437-227.138
			c0,1.093,0.523,1.77,1.769,1.77c0.832,0,1.697-0.377,2.567-1.095v-2.677C-568.798-228.913-571.437-228.985-571.437-227.138z"/>
	</g>
</g>
<path fill="#C41C30" d="M-970.783,367.853c0,2.867-2.32,5.188-5.186,5.188h-60.498c-2.861,0-5.188-2.32-5.188-5.188v-45.154
	c0-2.864,2.326-5.185,5.188-5.185h60.498c2.865,0,5.186,2.32,5.186,5.185V367.853z M-998.957,359.537l-3.937-14.855
	c1.906-1.137,3.197-3.198,3.197-5.579c0-3.602-2.919-6.521-6.518-6.521c-3.604,0-6.521,2.919-6.521,6.521
	c0,2.381,1.286,4.439,3.191,5.579l-3.933,14.855H-998.957z"/>
<g>
	<path fill="#C41C30" d="M-1030.793,324.347v-12.801c0-13.555,11.025-24.58,24.577-24.58c13.551,0,24.575,11.025,24.575,24.58
		v12.934h-12.963v-12.934c0-6.405-5.207-11.617-11.612-11.617c-6.401,0-11.614,5.212-11.614,11.617v12.801H-1030.793z"/>
</g>
<g>
	<g>
		<path fill="#FFFFFF" d="M-1018.566,655.126c-0.07,0.012-0.152,0.018-0.221,0.018s-0.15-0.006-0.218-0.018
			c-17.185-3.283-30.148-25.691-30.148-52.104c0-1.572,0.045-3.113,0.128-4.646c0.042-0.771,0.679-1.432,1.271-1.432
			c0.038,0,0.079,0,0.118,0.01l0.777,0.018c10.935,0,21.039-4.904,27.039-13.125c0.258-0.349,0.635-0.545,1.033-0.545
			c0.396,0,0.775,0.196,1.033,0.551c5.985,8.215,16.098,13.119,27.041,13.119l0.76-0.018c0.741,0.055,1.34,0.604,1.394,1.422
			c0.088,1.525,0.138,3.074,0.138,4.646C-988.422,629.435-1001.389,651.843-1018.566,655.126z"/>
	</g>
	<g>
		<path fill="#C41C30" d="M-979.697,592.271c-0.069-1.055-0.855-1.777-1.796-1.855l-0.987,0.033
			c-14.154,0-27.228-6.342-34.97-16.969c-0.333-0.443-0.823-0.711-1.337-0.711c-0.516,0-0.997,0.268-1.336,0.711
			c-7.75,10.627-20.82,16.969-34.963,16.969l-1.016-0.033c-0.803-0.111-1.725,0.801-1.784,1.855
			c-0.107,1.975-0.169,3.963-0.169,5.99c0,34.172,16.76,63.145,38.984,67.391c0.088,0.021,0.189,0.025,0.283,0.025
			c0.101,0,0.195-0.004,0.287-0.025c22.224-4.246,38.977-33.219,38.977-67.391C-979.523,596.233-979.585,594.245-979.697,592.271z
			 M-1018.566,655.126c-0.07,0.012-0.152,0.018-0.221,0.018s-0.15-0.006-0.218-0.018c-17.185-3.283-30.148-25.691-30.148-52.104
			c0-1.572,0.045-3.113,0.128-4.646c0.042-0.771,0.679-1.432,1.271-1.432c0.038,0,0.079,0,0.118,0.01l0.777,0.018
			c10.935,0,21.039-4.904,27.039-13.125c0.258-0.349,0.635-0.545,1.033-0.545c0.396,0,0.775,0.196,1.033,0.551
			c5.985,8.215,16.098,13.119,27.041,13.119l0.76-0.018c0.741,0.055,1.34,0.604,1.394,1.422c0.088,1.525,0.138,3.074,0.138,4.646
			C-988.422,629.435-1001.389,651.843-1018.566,655.126z"/>
	</g>
	<path fill="#C41C30" d="M-983.918,595.226c-0.058-0.945-0.755-1.58-1.598-1.652l-0.883,0.027c-12.629,0-24.289-5.646-31.199-15.104
		c-0.289-0.396-0.732-0.634-1.186-0.634c-0.461,0-0.344,71.817-0.258,82.696c0,0.086,0.167,0.023,0.258,0.023
		c0.084,0,0.174-0.002,0.252-0.023c19.824-3.783,34.77-29.572,34.77-60C-983.762,598.757-983.811,596.985-983.918,595.226z"/>
</g>
<path fill="#CDC4BB" d="M-748.279,591.485l-6.676-0.543c-10.879-1.684-20.558-7.258-26.72-15.613c-0.306-0.429-0.79-0.68-1.277-0.68
	c-0.485,0-0.972,0.251-1.298,0.663c-7.45,10.122-20.033,16.173-33.663,16.173l-0.974-0.016c-0.773-0.109-1.656,0.746-1.709,1.766
	c-0.112,1.877-0.164,3.77-0.164,5.697c0,32.563,16.13,60.186,37.536,64.221c0.092,0.016,0.18,0.033,0.271,0.033
	c0.091,0,0.18-0.018,0.271-0.033c21.388-4.035,37.537-31.658,37.537-64.221c0-1.928-0.073-3.82-0.182-5.697
	c-0.053-1.02-0.81-1.695-1.73-1.766l-0.933,0.016"/>
<path fill="#C41C30" d="M-755.265,590.874c4.607-4.01,9.15-7.355,13.625-9.95l1.485,2.183c-2.858,2.201-5.474,4.548-8.642,7.869
	l-0.402,0.42c-1.591,1.67-3.221,3.469-4.889,5.424c-2.054,2.396-4.146,5.01-6.329,7.836c-7.422,9.709-13.09,18.771-17.006,27.195
	l-3.146,2.164c-2.613,1.859-4.382,3.236-5.313,4.129c-0.372-1.359-1.18-3.594-2.431-6.688l-1.197-2.826
	c-1.699-4.057-3.272-7.041-4.739-8.99c-1.468-1.951-3.094-3.238-4.917-3.863c3.057-3.309,5.864-4.955,8.422-4.955
	c2.181,0,4.596,3.021,7.275,9.082l1.325,3.041c4.793-8.26,10.945-16.291,18.455-24.086c2.003-2.057,3.986-4.006,5.954-5.813
	C-756.906,592.284-756.085,591.593-755.265,590.874"/>
<rect x="-388.708" y="-181.392" fill="none" width="23.1" height="5.481"/>
<rect x="-424.583" y="-170.332" fill="none" width="59.11" height="3.651"/>
<path fill="#C41C30" d="M-387.587-192.451l-10.204,12.593l-9.632-12.593h-22.807v35.088h70.175v-35.088H-387.587z M-388.708-181.392
	h23.1v5.481h-23.1V-181.392z M-365.473-166.681h-59.11v-3.651h59.11V-166.681z"/>
<path fill="#0073CF" d="M-380.237-201.521l-8.482-0.088l-0.041-0.914c-0.943-20.273-20.632-23.3-32.285-23.3
	c-1.017,0-1.955,0.023-2.789,0.06c9.169,3.932,17.764,9.838,17.764,23.358v0.971l-8.257-0.043l6.904,9.027h19.836L-380.237-201.521z
	"/>
<polygon fill="#C41C30" points="-387.587,-192.451 -407.423,-192.451 -397.791,-179.858 "/>
<polygon fill="#26689E" points="-387.587,-192.451 -407.423,-192.451 -397.791,-179.858 "/>
<polygon fill="none" points="-423.387,40.033 -423.394,40.041 -423.379,40.041 "/>
<path fill="#CDC4BB" d="M-423.379,40.041h-0.015l-17.662,19.084l-12.349-10.641L-460.662,54l-5.233-6.162l10.232-7.797h-18.672
	c-1.972,0-3.571,1.598-3.571,3.568v38.361c0,1.973,1.599,3.569,3.571,3.569h65.129c1.97,0,3.569-1.597,3.569-3.569V43.609
	c0-0.262-0.032-0.515-0.085-0.761l-7.757,7.579L-423.379,40.041z M-471.919,62.936c0-0.972,0.789-1.759,1.76-1.759h7.957
	c0.972,0,1.76,0.788,1.76,1.759v5.154c0,0.974-0.789,1.76-1.76,1.76h-7.957c-0.972,0-1.76-0.786-1.76-1.76V62.936z M-460.349,76.749
	h-11.478v-3.922h11.478V76.749z M-444.138,76.749h-11.479v-3.922h11.479V76.749z M-427.925,76.749h-11.48v-3.922h11.48V76.749z
	 M-411.716,76.749h-11.478v-3.922h11.478V76.749z"/>
<polygon fill="#CDC4BB" points="-434.489,40.041 -450.795,40.041 -441.728,47.864 "/>
<rect x="-471.827" y="72.827" fill="#FFFFFF" width="11.478" height="3.922"/>
<rect x="-455.616" y="72.827" fill="#FFFFFF" width="11.479" height="3.922"/>
<rect x="-439.406" y="72.827" fill="#FFFFFF" width="11.48" height="3.922"/>
<rect x="-423.194" y="72.827" fill="#FFFFFF" width="11.478" height="3.922"/>
<path fill="#FFFFFF" d="M-470.159,69.85h7.957c0.972,0,1.76-0.786,1.76-1.76v-5.154c0-0.972-0.789-1.759-1.76-1.759h-7.957
	c-0.972,0-1.76,0.788-1.76,1.759v5.154C-471.919,69.063-471.131,69.85-470.159,69.85z"/>
<path fill="#0880C4" d="M-413,27.208l6.011,5.532l-6.277,6.125l-10.208-10.729l-11.015,11.905h11.095l0.007-0.008l0.007,0.008
	h14.173c1.708,0,3.135,1.203,3.484,2.808l4.709-4.601l5.903,5.437l6.116-22.939L-413,27.208z"/>
<polygon fill="#0880C4" points="-453.078,38.071 -455.663,40.041 -450.795,40.041 "/>
<path fill="#CDC4BB" d="M-409.206,40.041h-14.173l9.9,10.387l7.757-7.579C-406.071,41.244-407.498,40.041-409.206,40.041z"/>
<path fill="#26689E" d="M-409.206,40.041h-14.173l9.9,10.387l7.757-7.579C-406.071,41.244-407.498,40.041-409.206,40.041z"/>
<polygon fill="#CDC4BB" points="-460.662,54 -453.405,48.484 -441.056,59.125 -423.394,40.041 -434.489,40.041 -441.728,47.864
	-450.795,40.041 -455.663,40.041 -465.895,47.838 "/>
<polygon fill="#26689E" points="-460.662,54 -453.405,48.484 -441.056,59.125 -423.394,40.041 -434.489,40.041 -441.728,47.864
	-450.795,40.041 -455.663,40.041 -465.895,47.838 "/>
<path fill="none" d="M53.074,26.512v-6.354H29.731v58.438h38.505l-0.006-47.243H57.923C55.245,31.353,53.074,29.181,53.074,26.512z"
	/>
<g>
	<path fill="#C41C30" d="M68.237,78.596H29.731V20.157h23.342v-7.975H31.996c-3.813,0-6.941,3.122-6.941,6.945v72.084
		c0,3.82,3.127,6.941,6.946,6.941h33.97c3.818,0,6.946-3.122,6.951-6.947l-0.008-59.854h-4.682L68.237,78.596z"/>
</g>
<path fill="#C41C30" d="M64.511,20.649c0.237-0.168,0.481-0.328,0.721-0.492H53.074v6.354c0,2.669,2.171,4.841,4.849,4.841h10.308
	l-0.001-9.248c-0.238,0.183-0.479,0.361-0.714,0.547C66.538,21.946,65.538,21.272,64.511,20.649z"/>
<path fill="#C41C30" d="M77.689,1.889H57.923c-2.678,0-4.849,2.173-4.849,4.848v5.445h9.042c0.03-0.01,0.059-0.021,0.089-0.031
	c0.03,0.009,0.06,0.021,0.09,0.031h2.05c-0.772-0.28-1.551-0.544-2.341-0.776c0.698-0.245,1.406-0.465,2.114-0.669
	c2.015,0.611,3.972,1.381,5.862,2.294c-0.145,0.049-0.29,0.106-0.435,0.156c0.223,0.136,0.438,0.282,0.644,0.44
	c1.465-0.55,2.958-1.037,4.482-1.44c0.871,0.373,1.724,0.771,2.569,1.193c-1.859,0.56-3.675,1.227-5.44,1.995
	c0.156,0.24,0.294,0.492,0.42,0.752c1.872-0.894,3.801-1.686,5.786-2.354c0.778,0.414,1.549,0.85,2.304,1.308
	c-2.58,1.085-5.052,2.365-7.41,3.813c0.002,0.076,0.012,0.151,0.012,0.229l0.001,12.23h4.776c2.68,0,4.847-2.172,4.847-4.841V6.737
	C82.536,4.063,80.369,1.889,77.689,1.889z M71.05,12.687c-1.905-0.892-3.869-1.646-5.895-2.229c0.633-0.173,1.283-0.318,1.932-0.452
	c2.042,0.561,4.042,1.264,5.976,2.108C72.38,12.29,71.711,12.482,71.05,12.687z"/>
<path fill="#B51F31" d="M65.232,20.157c2.215-1.516,4.549-2.865,6.987-4.029c-0.125-0.26-0.264-0.512-0.42-0.752
	c-2.935,1.277-5.726,2.835-8.337,4.643c-0.927-0.534-1.875-1.042-2.831-1.518c2.973-1.971,6.182-3.606,9.557-4.873
	c-0.206-0.159-0.421-0.305-0.644-0.44c-0.502,0.174-1.005,0.35-1.503,0.541c-1.201-0.578-2.437-1.088-3.697-1.545h-2.05
	c0.604,0.188,1.197,0.391,1.784,0.61c-2.337,0.829-4.58,1.884-6.701,3.131c-0.687-0.288-1.376-0.553-2.073-0.804
	c2.158-1.199,4.445-2.177,6.812-2.937h-9.042v7.975H65.232z M64.963,13.125c0.75,0.296,1.479,0.608,2.208,0.948
	c-2.318,0.936-4.549,2.053-6.686,3.322c-0.719-0.379-1.453-0.737-2.193-1.069C60.424,15.088,62.651,14.014,64.963,13.125z"/>
<path fill="#B51F31" d="M72.9,18.894c-1.614,0.991-3.172,2.063-4.67,3.211l0.001,9.248h4.682l-0.001-12.23
	C72.912,19.045,72.902,18.97,72.9,18.894z M69.719,22.652c-0.276,0-0.5-0.219-0.5-0.495c0-0.267,0.224-0.484,0.5-0.484
	c0.282,0,0.505,0.218,0.505,0.484C70.225,22.433,70.001,22.652,69.719,22.652z"/>
<path fill="#C41C30" d="M69.719,21.769c-0.228,0-0.408,0.175-0.408,0.388c0,0.225,0.181,0.399,0.408,0.399
	c0.227,0,0.407-0.174,0.407-0.399C70.126,21.943,69.946,21.769,69.719,21.769z M69.971,22.434h-0.096l-0.161-0.252h-0.099v0.252
	h-0.081v-0.545h0.241c0.056,0,0.099,0.001,0.141,0.026c0.042,0.02,0.063,0.071,0.063,0.117c0,0.107-0.082,0.146-0.181,0.15
	L69.971,22.434z"/>
<path fill="#C41C30" d="M69.761,21.952h-0.146v0.163h0.094c0.076,0,0.188,0.015,0.188-0.083
	C69.897,21.961,69.834,21.952,69.761,21.952z"/>
<path fill="#FFFFFF" d="M69.719,21.672c-0.276,0-0.5,0.218-0.5,0.484c0,0.276,0.224,0.495,0.5,0.495
	c0.282,0,0.505-0.219,0.505-0.495C70.225,21.89,70.001,21.672,69.719,21.672z M69.719,22.556c-0.228,0-0.408-0.174-0.408-0.399
	c0-0.213,0.181-0.388,0.408-0.388c0.227,0,0.407,0.175,0.407,0.388C70.126,22.382,69.946,22.556,69.719,22.556z"/>
<path fill="#FFFFFF" d="M69.98,22.032c0-0.046-0.021-0.098-0.063-0.117c-0.042-0.025-0.085-0.026-0.141-0.026h-0.241v0.545h0.081
	v-0.252h0.099l0.161,0.252h0.096l-0.172-0.252C69.898,22.179,69.98,22.139,69.98,22.032z M69.709,22.115h-0.094v-0.163h0.146
	c0.073,0,0.136,0.009,0.136,0.08C69.897,22.13,69.785,22.115,69.709,22.115z"/>
<path fill="#FFFFFF" d="M67.171,14.073c-0.729-0.34-1.458-0.652-2.208-0.948c-2.312,0.889-4.539,1.963-6.67,3.201
	c0.74,0.332,1.474,0.689,2.193,1.069C62.622,16.126,64.853,15.009,67.171,14.073z"/>
<path fill="#FFFFFF" d="M62.205,12.152c-0.03,0.009-0.059,0.021-0.089,0.031h0.179C62.265,12.173,62.235,12.161,62.205,12.152z"/>
<path fill="#FFFFFF" d="M57.377,15.923c2.121-1.247,4.364-2.302,6.701-3.131c-0.586-0.219-1.18-0.421-1.784-0.61h-0.179
	c-2.367,0.759-4.653,1.738-6.812,2.937C56.001,15.371,56.691,15.635,57.377,15.923z"/>
<path fill="#FFFFFF" d="M69.545,13.188c0.145-0.05,0.29-0.107,0.435-0.156c-1.89-0.913-3.847-1.683-5.862-2.294
	c-0.708,0.204-1.416,0.424-2.114,0.669c0.79,0.232,1.568,0.497,2.341,0.776h1.621C67.274,12.181,68.497,12.553,69.545,13.188z"/>
<path fill="#FFFFFF" d="M69.545,13.188c-1.048-0.634-2.271-1.007-3.579-1.005h-1.621c1.26,0.457,2.496,0.968,3.697,1.545
	C68.54,13.537,69.042,13.361,69.545,13.188z"/>
<path fill="#FFFFFF" d="M65.155,10.457c2.026,0.584,3.99,1.338,5.895,2.229c0.662-0.204,1.331-0.396,2.013-0.574
	c-1.934-0.844-3.933-1.547-5.976-2.108C66.438,10.139,65.788,10.284,65.155,10.457z"/>
<path fill="#FFFFFF" d="M65.232,20.157c-0.24,0.164-0.484,0.324-0.721,0.492c1.026,0.623,2.027,1.297,3.004,2.002
	c0.235-0.186,0.476-0.365,0.714-0.547v-1.947H65.232z"/>
<path fill="#FFFFFF" d="M80.31,15.081c-0.755-0.458-1.526-0.894-2.304-1.308c-1.985,0.669-3.914,1.46-5.786,2.354
	c0.407,0.844,0.647,1.778,0.68,2.766C75.258,17.446,77.73,16.166,80.31,15.081z"/>
<path fill="#FFFFFF" d="M68.229,20.157v1.947c1.498-1.148,3.057-2.22,4.67-3.211c-0.033-0.987-0.273-1.922-0.68-2.766
	c-2.438,1.164-4.772,2.514-6.987,4.029H68.229z"/>
<path fill="#FFFFFF" d="M71.8,15.376c1.765-0.769,3.581-1.436,5.44-1.995c-0.846-0.422-1.699-0.82-2.569-1.193
	c-1.524,0.403-3.017,0.891-4.482,1.44C70.82,14.114,71.366,14.705,71.8,15.376z"/>
<path fill="#FFFFFF" d="M63.463,20.019c2.611-1.808,5.402-3.365,8.337-4.643c-0.434-0.671-0.979-1.262-1.611-1.748
	c-3.375,1.267-6.584,2.902-9.557,4.873C61.588,18.977,62.536,19.484,63.463,20.019z"/>
</svg>
