<svg xmlns="http://www.w3.org/2000/svg" viewBox="0 0 206.6 206.6">
    <style>
        .st3-jdp{fill:#ecbc6e}
    </style>
    <linearGradient id="SVGID_1_" gradientUnits="userSpaceOnUse" x1="-962.674" y1="607.931" x2="-961.967" y2="607.224">
        <stop offset="0" stop-color="#20ac4b"/>
        <stop offset=".983" stop-color="#19361a"/>
    </linearGradient>
    <g id="Layer_1">
        <path d="M203.9 193.6c0 5.6-4.5 10.1-10.1 10.1H13.1c-5.6 0-10.1-4.5-10.1-10.1V12.8C3 7.3 7.5 2.7 13.1 2.7l180.5-.1c5.6 0 10.3 4.6 10.3 10.1v180.9z"/>
        <linearGradient id="SVGID_2_" gradientUnits="userSpaceOnUse" x1="13.272" y1="-5.88" x2="144.118" y2="82.377">
            <stop offset=".362" stop-color="#ecbc6e"/>
            <stop offset=".595" stop-color="#ecbc6e"/>
            <stop offset=".761" stop-color="#f3d5a5"/>
            <stop offset="1" stop-color="#ecbc6e"/>
        </linearGradient>
        <path d="M13.1 2.7C6.7 3 3 7.4 3 12c0 9.6-.3 80.3-.3 80.3C7.5 95 14 97.5 19.2 99.6c60.6 24.2 131.7-7.4 156-68 7.2-18 6.7-28.7 6.9-28.9h-169z" fill="url(#SVGID_2_)"/>
        <path d="M3 18.3h176M3 32.6h170.8M3 46.8h163.5M3 61.1h154.2M3 75.4h140.4M3 89.7h121.5" fill="none" stroke="#f3e6cf" stroke-width="1.207" stroke-miterlimit="3.864"/>
        <linearGradient id="SVGID_3_" gradientUnits="userSpaceOnUse" x1="145.693" y1="-23.096" x2="57.197" y2="136.556">
            <stop offset="0" stop-color="#666"/>
            <stop offset=".626" stop-color="#fff"/>
            <stop offset=".687" stop-color="#cecece"/>
            <stop offset=".742" stop-color="#f2f2f2"/>
            <stop offset=".791" stop-color="#666"/>
            <stop offset=".834" stop-color="#f2f2f2"/>
            <stop offset=".871" stop-color="#cbcbcb"/>
            <stop offset=".926" stop-color="#fff"/>
            <stop offset=".978" stop-color="#666"/>
        </linearGradient>
        <path d="M3 101.8v4.7s70.4 38 140.1-13.3c44.7-32.8 49.1-90.6 49.1-90.6H187s-6.9 69.8-72 99.8c-58.1 27-112-.6-112-.6z" fill="url(#SVGID_3_)"/>
        <path class="st3-jdp" d="M3.1 96.9v5.3s67.7 36.7 135.1-13c44.6-32.9 49.2-86.5 49.2-86.5h-3.7s-6.3 69-71.3 97.2c-58.6 25.5-109.3-3-109.3-3z"/>
        <linearGradient id="SVGID_4_" gradientUnits="userSpaceOnUse" x1="3.026" y1="56.914" x2="183.837" y2="56.914">
            <stop offset=".436" stop-color="#b3b5b8"/>
            <stop offset="1" stop-color="#414042"/>
        </linearGradient>
        <path d="M3 92.3V97s67 38.6 134.2-11.5c41.2-30.7 46.6-82.8 46.6-82.8H182s-4.2 64.7-69.3 92.9C54 121.1 3 92.3 3 92.3z" fill="url(#SVGID_4_)"/>
        <path d="M26.6 48.5c0 7.6-3.3 11.6-7.1 11.6-1.1 0-1.4-.3-1.4-.6 0-.4.3-.8 1.1-.8 1.1 0 2.5-1.3 3.2-2.2.8-1.1 1.5-2.8 1.5-6.8V26.1c0-3.7-3-2.4-3-4.4 0-.5.6-.4 1.4-.4.7 0 1.1.1 3 .1s1.4-.1 2.3-.1c.5 0 1.2-.2 1.2.5 0 .9-2.1.2-2.1 2.7v24zm9.5-22.9c0-3.6-2.3-2.4-2.3-3.8 0-.4.3-.6.6-.6 1.3 0 1.7.2 3.1.2 1.5 0 3.1-.2 4.5-.2 7.6 0 11.4 4.9 11.4 12.1 0 10.3-6 13.2-11.6 13.2-2.1 0-3-.3-4-.3-.9 0-2.1.3-2.9.3-.4 0-1-.2-1-.6 0-1.3 2.3.2 2.3-3.9V25.6zm28.4 17.9c0 2 2.8 1.1 2.8 2.3 0 .5-.4.6-.8.6h-2.9c-1.1 0-2.7.1-2.8.1-.2 0-1-.1-1-.7 0-1 2.1-.5 2.1-3V24.7c0-3.2-2.4-1.8-2.4-3.1 0-.2.1-.7.7-.7.2 0 1.3.2 3.3.2.4 0 2.3-.2 4.2-.2 3.4-.1 6.1 2.5 6.1 6.4 0 4.1-2.1 7.6-7.4 7.6-.6 0-1.5-.4-1.5-1 0-.5.7-.6 1.9-.6 3.4 0 4.5-2.6 4.5-5.4 0-1.5-.6-5.7-4.4-5.7-1.2 0-2.1 0-2.1 1.6v19.7zm19.6-22.6c5.4 0 10.2 5.1 10.2 12.7 0 5-2.6 13.2-10.4 13.2-5.3 0-10.3-4.7-10.3-12.4-.1-7.8 4.2-13.5 10.5-13.5zm26.6 24.7c-.2.5-.5 1.1-.8 1.1-.4 0-.6-.3-.9-1.1l-3-9.2c0-.2-.1-.3-.1-.3-.2 0-.2.2-.2.3l-3.5 9.6c-.2.5-.4.7-.6.7-.3 0-.5-.3-.8-1.1l-7.3-21.9c-.5-1.7-2.3-1-2.3-2 0-.4.4-.6.6-.6.4 0 1.2.2 2.8.2 2.4 0 2.1-.2 2.5-.2.2 0 .6 0 .6.5 0 .6-1 .4-1 1.6 0 .3.2 1.7.5 2.6l4.3 14.1c.2.5.2 1 .4 1 .1 0 .2-.1.3-.3l2.1-5.6c.2-.5.5-1.2.5-1.5 0-.4-.2-1.1-.5-1.7l-2.8-8.2c-.6-1.7-2.5-1-2.5-2 0-.4.4-.6.6-.6.4 0 1.5.2 3.2.2 2.3 0 2.2-.2 2.6-.2.2 0 .6 0 .6.5 0 1.1-1.2.4-1.2 1.7 0 .4.1.8.4 1.7l4.7 14.9c.2.6.3.8.5.8.1 0 .2-.1.7-1.2l4.9-13.8c.3-.8.6-1.7.6-2.4 0-1.4-2.1-.6-2.1-1.6 0-.4.1-.7.6-.7h2.9c3.7 0 3 .1 4.9.1 1.7 0 3-.2 4.6-.2 1.9 0 2.1-.7 3-.7.2 0 .6.1.9 1.1l1 3.7c.2.8-.1 1.5-.7 1.5-1.3 0-.8-3.9-4.7-3.9-3.2 0-3.8.3-3.8 1.9v5c0 1.5.5 1.2 1.6 1.2h2.1c2.8 0 1.6-2.7 2.5-2.7.5 0 .8.2.8.9 0 .4.1 1.1.2 1.8.2 1.6.6 3.1.6 4 0 .5-.2 1.1-.8 1.1-.9 0-.5-3.4-3.4-3.4h-2c-1.2 0-1.6.4-1.6 1.5v8.7c0 1.4.8 2 2.7 2 3.4 0 4.8-1.1 5.7-2.2.5-.7.8-1.5 1.3-1.5.1 0 .6.1.6.5 0 .3 0 .6-.2 1.1l-1.3 3c-.3.7-.8.9-1.7.9-1.2 0-1.5-.2-3.2-.2h-4.7c-.8 0-1.5.2-3 .2-.4 0-.7-.2-.7-.5 0-1.6 1.8.3 1.8-4V25.3c0-1.9-.1-2.5-.8-2.5-.8 0-.9.8-1.2 1.5l-7.8 21.3zm27.3-3.2c0 3.8 2.8 2.4 2.8 3.6 0 .4-.2.6-.9.6-.4 0-2.2-.2-3.3-.2-1.4 0-1.2.2-2.6.2-.3 0-.9.1-.9-.6 0-1.1 2.3.2 2.3-3.6v-17c0-4-2.9-2.6-2.9-4 0-.4.2-.5.6-.5 1.3 0 1.5.2 3.2.2 1.7 0 4.2-.5 6-.5 4.4 0 5.6 3.6 5.6 5.2 0 4.4-2 5.6-4.6 6.9.6.2 1.9 1.4 2.8 3 1.2 2.2 2.1 5.3 3.2 8 .2.6.6 1.1 1.1 1.1.3 0 .9-.6 1.1-.6.3 0 .8.6.8.8 0 .8-1 1.5-2.6 1.5-2.1 0-2.5-1.3-3.3-2.8-.7-1.6-1.7-4.7-3.3-8-.5-1.1-1.3-2.3-2.4-2.5-.9-.1-1.9-.3-1.9-1.1 0-.4.3-.7.7-.7.4 0 .6.1 1 .1 2.6 0 4.7-1.6 4.7-5 0-2.6-1.9-4.4-4.2-4.4-1.3 0-2.8.6-2.8 1.9v18.4zm-85.5.8c.8-.9 1-1.2 1.2-1.2.3 0 .2.2 1 1.1.7.7 1 .9 1 1.3 0 .2-.2.4-.9 1.1-.6 1-.7 1.3-1.2 1.3s-.5-.3-1.2-1.1c-.6-.8-.9-1-.9-1.5.1-.1.3-.2 1-1zm-23.3 0c.7-.9.9-1.2 1.2-1.2.3 0 .2.2 1 1.1.7.7 1 .9 1 1.3 0 .2-.2.4-.9 1.1-.7 1-.7 1.3-1.3 1.3-.4 0-.4-.3-1.1-1.1-.6-.8-.9-1-.9-1.5.1-.1.3-.2 1-1zm9.8-.6c0 2.4 2 2.3 3 2.3 6.1 0 8.5-3.8 8.5-11.1 0-3.7-1.8-11.1-8.9-11.1-1.9 0-2.6.6-2.6 3.3v16.6zm45.6 2.5c4.6 0 6.9-5.2 6.9-11.1 0-7.7-4.5-11.3-7.9-11.3-4.8 0-7.4 5.1-7.4 10.3 0 6.4 3.4 12.1 8.4 12.1z"/>
        <path d="M28.6 50.7h123.8m-139.2 0H21" fill="none" stroke="#000" stroke-width="1.439" stroke-miterlimit="3.864"/>
        <path d="M204 193.6c0 5.6-4.5 10.1-10.1 10.1H13.2c-5.6 0-10.1-4.5-10.1-10.1V12.9c0-5.6 4.5-10.1 10.1-10.1l180.5-.1c5.6 0 10.3 4.6 10.3 10.1v180.8z" fill="none" stroke="#ecbc6e" stroke-width="5.055"/>
    </g>
    <g id="type_on_emblem">
        <path class="st3-jdp" d="M20.7 164.3c1.2 0 1.9-.2 2.4-.6.5-.4.7-.8.8-1 .2-.1.5 0 .6.2-.3 1.3-.8 2.6-1.2 3.1-1-.1-2.1-.1-3.2-.1h-3.6c-1.4 0-2.2 0-2.8.1 0 0-.2-.1-.2-.3 0-.1.1-.2.3-.3 1.2-.8 2-1.6 3.8-3.6 1.7-1.8 3.6-4.2 3.6-6.9 0-2.3-1.1-3.7-3.1-3.7-1.5 0-2.6 1-3.3 2.5-.2.1-.6 0-.6-.3.8-2.2 2.8-3.5 5.1-3.5 2.5 0 4.2 1.7 4.2 4.1 0 1.6-.7 3.3-2.7 5.5l-1.5 1.8c-2.1 2.4-2.3 2.8-2.3 2.9 0 .2.1.2.8.2h2.9zm16.4-6.3c0 4-1.5 8.2-5.2 8.2s-5.2-4.3-5.2-8.2c0-3.8 1.5-8.2 5.2-8.2 3.6 0 5.2 4.4 5.2 8.2zm-8.2 0c0 2.4.2 7.5 3 7.5s3-5.1 3-7.5-.2-7.5-3-7.5-3 5.1-3 7.5zm13.1-3.7c0-1.7-.1-2.3-1.2-2.4l-1.2-.1c-.2-.1-.2-.5 0-.6 2.1-.4 3.5-1 4.2-1.5.1 0 .2.1.3.1 0 .5-.1 1.7-.1 3.1v9.8c0 1.9.1 2.4 1.1 2.4l1.1.1c.2.2.1.6 0 .6-1-.1-2.1-.1-3-.1-.9 0-2 0-3 .1-.2-.1-.2-.5-.1-.6l1-.1c1.1-.1 1.1-.5 1.1-2.4v-8.4zm15.8-.8c0 2.1-1.7 3-3 3.8 1.7 1 3.3 2.3 3.3 4.7 0 2.7-2.1 4.3-5 4.3-2.2 0-4.7-1.1-4.7-4.2 0-1.9 1.7-3.2 3.4-4.2-1.5-.8-2.8-2-2.9-4 0-2.6 2.1-4.1 4.6-4.1 2.4 0 4.3 1.2 4.3 3.7zm-1.5 8.9c0-2-1.9-3.4-3.7-4.2-1.7 1.1-2.3 2.5-2.3 3.6 0 2.1 1.2 3.7 3.1 3.7 1.8 0 2.9-1.2 2.9-3.1zm-5.5-9.1c0 1.7 1.7 2.8 3.3 3.6 1.2-.8 2-2 2-3.4 0-1.5-1.1-3-2.7-3-1.7 0-2.6 1.4-2.6 2.8zm19.4-2.3c1.8-1.4 4.2-2.1 6.8-2.1 1.4 0 3.3.3 4.5.6.3.1.5.1.7.1 0 .6.2 2.2.4 3.7-.1.2-.5.2-.7.1-.4-1.7-1.5-3.7-5.2-3.7-3.8 0-7.1 2.4-7.1 7.6 0 5.3 3.3 8.2 7.5 8.2 3.2 0 4.7-2.1 5.3-3.6.2-.1.6-.1.7.1-.2 1.3-.8 3-1.2 3.4l-.9.3c-.6.2-2.4.6-4 .6-2.3 0-4.4-.5-6.3-1.7-2-1.4-3.6-3.7-3.6-6.9-.1-2.8 1.1-5.2 3.1-6.7zm16.4 2c0-2.6-.1-3-1.5-3.2l-.4-.1c-.2-.1-.1-.6.1-.6 1.1.1 1.9.1 3 .1h4.7c1.6 0 3.1 0 3.4-.1.2.4.3 2.2.4 3.3-.1.2-.5.2-.6.1-.4-1.2-.6-2.1-1.9-2.4-.5-.1-1.3-.2-2.4-.2h-1.8c-.8 0-.8.1-.8 1v5c0 .7.1.7.8.7H91c1.1 0 1.8-.1 2.1-.2.3-.1.5-.3.6-.9l.2-1c.1-.2.6-.2.7 0 0 .6-.1 1.6-.1 2.5 0 .9.1 1.9.1 2.4-.1.2-.5.2-.7 0l-.2-1c-.1-.5-.3-.8-.8-1-.4-.1-1-.1-1.9-.1h-1.5c-.8 0-.8 0-.8.7v3.5c0 1.3.1 2.2.5 2.6.3.3.8.6 3 .6 1.9 0 2.7-.1 3.2-.4.5-.3 1.1-1.1 1.8-2.4.2-.1.5-.1.6.2-.2.9-.8 2.8-1.1 3.5-2.3-.1-4.5-.1-6.7-.1h-2.3c-1.1 0-1.9 0-3.4.1-.2-.1-.2-.5-.1-.6l.8-.1c1.4-.1 1.6-.5 1.6-3.1V153zm14.7.1c0-2.4-.1-2.8-1.1-2.9l-.8-.1c-.2-.1-.2-.5 0-.6 1.4-.1 3.1-.2 5.6-.2 1.6 0 3 .1 4.2.8 1.2.6 2.1 1.8 2.1 3.5 0 2.4-1.9 3.7-3.1 4.2-.1.2 0 .4.1.6 2 3.2 3.3 5.3 5.1 6.7.4.4 1.1.7 1.7.7.1.1.2.3 0 .4-.2.1-.6.1-1.1.1-2.1 0-3.4-.6-5.2-3.2-.7-.9-1.7-2.7-2.5-3.8-.4-.6-.8-.8-1.8-.8-1.1 0-1.2 0-1.2.6v3.2c0 2.6 0 2.9 1.5 3.1l.5.1c.2.1.1.6-.1.6-1.1-.1-2-.1-3-.1-1.1 0-2 0-3.1.1-.2-.1-.2-.5 0-.6l.6-.1c1.5-.2 1.5-.5 1.5-3.1v-9.2zm2.1 3.6c0 .5 0 .7.1.8.1.1.5.1 1.7.1.9 0 1.9-.1 2.6-.7.7-.5 1.3-1.4 1.3-3.1 0-2-1.2-3.9-4-3.9-1.6 0-1.6.1-1.6.8v6zm19 5.4c0 2.6 0 3 1.5 3.1l.8.1c.2.1.1.6 0 .6-1.4-.1-2.3-.1-3.3-.1s-1.9 0-3.5.1c-.2-.1-.2-.5 0-.6l.9-.1c1.4-.1 1.6-.5 1.6-3.1v-11.2c0-.8 0-.8-.8-.8h-1.4c-1.1 0-2.5.1-3.1.6-.6.6-.9 1.1-1.1 1.7-.2.2-.6 0-.7-.2.4-1.1.8-2.7 1-3.7.1-.1.4-.1.5 0 .2.8 1 .8 2.1.8h10.2c1.4 0 1.6-.1 2-.7.1-.1.4 0 .5.1-.3 1-.5 3.1-.4 3.8-.1.2-.5.2-.7.1-.1-.6-.3-1.6-.6-1.8-.6-.4-1.5-.6-2.9-.6h-1.8c-.8 0-.7 0-.7.9v11zm10.6-9c0-2.7-.1-3.1-1.5-3.2l-.6-.1c-.2-.1-.1-.6.1-.6 1.3.1 2.1.1 3.2.1 1 0 1.9 0 3.1-.1.2.1.2.5.1.6l-.6.1c-1.5.1-1.5.6-1.5 3.2v9c0 2.7 0 3 1.5 3.2l.6.1c.2.1.1.6-.1.6-1.3-.1-2.1-.1-3.1-.1-1.1 0-1.9 0-3.2.1-.2-.1-.2-.5-.1-.6l.6-.1c1.5-.2 1.5-.5 1.5-3.2v-9zm10.6 3.3c0 .7.1.7.8.7h1.7c1 0 1.8-.1 2.1-.2.3-.1.5-.2.6-.9l.2-1c.1-.2.6-.2.7 0 0 .6-.1 1.6-.1 2.5 0 .9.1 1.9.1 2.4-.1.2-.5.2-.7 0l-.3-1c-.1-.5-.3-.8-.8-1-.4-.1-1-.1-1.9-.1h-1.7c-.8 0-.8 0-.8.7v3.5c0 2.6 0 3 1.5 3.1l.9.1c.2.1.1.6-.1.6-1.5-.1-2.3-.1-3.3-.1-1.1 0-2 0-3.1.1-.2-.1-.2-.5 0-.6l.6-.1c1.5-.2 1.5-.5 1.5-3.1v-9c0-2.6-.1-3-1.5-3.2l-.4-.1c-.2-.1-.1-.6 0-.6 1.1.1 1.9.1 2.9.1h4.6c1.6 0 3.1 0 3.4-.1 0 1.2 0 2.4.1 3.3-.1.2-.4.2-.6.1-.2-1.1-.5-2.1-1.8-2.4-.6-.2-1.4-.2-2.4-.2h-1.5c-.8 0-.8.1-.8 1v5.5zm11.4-3.3c0-2.7-.1-3.1-1.5-3.2l-.6-.1c-.2-.1-.1-.6.1-.6 1.3.1 2.1.1 3.2.1 1 0 1.9 0 3.1-.1.2.1.2.5.1.6l-.6.1c-1.5.1-1.5.6-1.5 3.2v9c0 2.7 0 3 1.5 3.2l.6.1c.2.1.1.6-.1.6-1.3-.1-2.1-.1-3.1-.1-1.1 0-1.9 0-3.2.1-.2-.1-.2-.5-.1-.6l.6-.1c1.5-.2 1.5-.5 1.5-3.2v-9zm8.6-.1c0-2.6-.1-3-1.5-3.2l-.4-.1c-.2-.1-.1-.6.1-.6 1.1.1 1.9.1 3 .1h4.7c1.6 0 3.1 0 3.4-.1.2.4.3 2.2.4 3.3-.1.2-.5.2-.6.1-.4-1.2-.6-2.1-1.9-2.4-.5-.1-1.3-.2-2.4-.2h-1.8c-.8 0-.8.1-.8 1v5c0 .7.1.7.8.7h1.5c1.1 0 1.8-.1 2.1-.2.3-.1.5-.3.6-.9l.2-1c.1-.2.6-.2.7 0 0 .6-.1 1.6-.1 2.5 0 .9.1 1.9.1 2.4-.1.2-.5.2-.7 0l-.2-1c-.1-.5-.3-.8-.8-1-.4-.1-1-.1-1.9-.1h-1.5c-.8 0-.8 0-.8.7v3.5c0 1.3.1 2.2.5 2.6.3.3.8.6 3 .6 1.9 0 2.7-.1 3.2-.4.5-.3 1.1-1.1 1.8-2.4.2-.1.5-.1.6.2-.2.9-.8 2.8-1.1 3.5-2.3-.1-4.5-.1-6.7-.1h-2.3c-1.1 0-1.9 0-3.4.1-.2-.1-.2-.5-.1-.6l.8-.1c1.4-.1 1.6-.5 1.6-3.1V153zm14.6-.5c0-1.8-.1-2.3-1.2-2.4l-.6-.1c-.2-.1-.2-.5 0-.6 2.1-.1 4.2-.2 6.3-.2 2.1 0 3.9.2 5.5.8 3.4 1.2 5.1 4.1 5.1 7.4 0 3.2-1.5 5.9-4.4 7.5-1.6.9-3.7 1.2-5.6 1.2-1.6 0-3.2-.2-4.1-.2-1.1 0-2 0-3.1.1-.2-.1-.2-.5-.1-.6l.6-.1c1.5-.2 1.5-.5 1.5-3.1v-9.7zm2.1 9c0 1.3.1 2.1.5 2.7.6.8 1.5 1 3.1 1 4.9 0 7.1-3.2 7.1-7.9 0-2.8-1.3-7.4-7.9-7.4-1.5 0-2.3.2-2.5.4-.2.2-.3.8-.3 1.9v9.3zM60.2 181.1c.6 1.2 1.1 2.3 1.7 3.4.7-1.2 1.3-2.5 1.9-3.8l2.4-4.8c1.1-2.3 1.9-3.7 1.9-4.8.9.1 1.4.1 1.9.1.6 0 1.5 0 2.2-.1.2.1.2.5 0 .6l-.5.1c-1.6.2-1.8.6-1.8 2.4 0 2.7.1 7.3.3 10.9.1 1.3.1 1.9 1.2 2l.8.1c.2.2.1.5 0 .6-1-.1-2.1-.1-3-.1-.9 0-2 0-3 .1-.2-.1-.2-.5-.1-.6l.7-.1c1.2-.1 1.2-.5 1.2-2.1l-.1-10.5h-.1c-.2.3-1.1 2.3-1.6 3.3l-2.2 4.4c-1.1 2.2-2.3 4.6-2.7 5.7-.1.1-.2.1-.3.1-.1 0-.2 0-.2-.1-.4-1.3-1.6-3.8-2.2-5l-2.3-4.9c-.5-1.2-1.1-2.5-1.6-3.6h-.1c-.1 1.6-.2 3-.3 4.5-.1 1.5-.2 3.8-.2 5.9 0 1.9.2 2.3 1.1 2.3l1 .1c.2.2.2.6 0 .6-.9-.1-1.8-.1-2.8-.1-.8 0-1.7 0-2.6.1-.2-.1-.2-.5-.1-.6l.6-.1c1.1-.2 1.4-.3 1.6-2.1.2-1.7.3-3 .4-5.5.1-2.1.2-4.2.3-5.6.1-1.6-.2-2-1.7-2.2l-.4-.1c-.1-.2-.1-.5.1-.6.8.1 1.4.1 2 .1.6 0 1.3 0 2.1-.1-.1 1 .5 2.5 1.3 4.2l3.2 5.9zm13.5-1.4c0-5 3.8-8.9 9-8.9 5.8 0 8.7 4.2 8.7 8.6 0 5.1-3.9 8.8-8.7 8.8-5.6 0-9-4-9-8.5zm15.2.5c0-4.2-1.8-8.6-6.6-8.6-2.6 0-6 1.8-6 7.3 0 3.7 1.8 8.6 6.8 8.6 2.9-.1 5.8-2.3 5.8-7.3zm6-5.7c0-1.9-.1-2.3-1.2-2.4l-.8-.1c-.2-.2-.2-.5 0-.6 1.4-.1 3.1-.2 5.4-.2 1.6 0 3.1.1 4.2.7 1.1.5 1.9 1.5 1.9 3.1 0 1.8-1.1 2.7-2.6 3.4 0 .3.2.3.5.4 1.4.3 3.4 1.5 3.4 4.2 0 2.9-2.2 4.9-6.7 4.9-.7 0-2-.1-3-.1-1.1 0-2 .1-2.9.1-.2-.1-.2-.5-.1-.6l.5-.1c1.3-.2 1.4-.5 1.4-3.1v-9.6zm2.1 3.3c0 .7 0 .8 1.3.7 2.6-.1 4-.9 4-3.2 0-2.5-1.8-3.4-3.7-3.4-.6 0-.9.1-1.2.2-.3.1-.4.2-.4.7v5zm0 5.8c0 .9 0 2.2.5 2.7.5.6 1.2.7 2 .7 2.2 0 4-1 4-3.5 0-2-1-4.3-5-4.3-1.4 0-1.5.2-1.5.7v3.7zm13.2-8.6c0-2.7-.1-3.1-1.5-3.2l-.6-.1c-.2-.1-.1-.6.1-.6 1.3.1 2.1.1 3.2.1 1 0 1.9 0 3.1-.1.2.1.2.5.1.6l-.6.1c-1.5.1-1.5.6-1.5 3.2v9c0 2.7 0 3 1.5 3.2l.6.1c.2.1.1.6-.1.6-1.3-.1-2.1-.1-3.1-.1-1.1 0-1.9 0-3.2.1-.2-.1-.2-.5-.1-.6l.6-.1c1.5-.2 1.5-.5 1.5-3.2v-9zm8.5 0c0-2.6-.1-3-1.6-3.2l-.6-.1c-.2-.1-.1-.6.1-.6 1.4.1 2.3.1 3.3.1s1.8 0 3.1-.1c.2.1.2.5.1.6l-.6.1c-1.5.1-1.5.5-1.5 3.2v8.8c0 1.6.1 2.2.5 2.7.3.3.8.6 2.7.6 2.1 0 2.7-.1 3.1-.3.5-.3 1.2-1.2 1.7-2.5.2-.1.6 0 .6.2 0 .3-.7 2.8-1.1 3.5-1.3-.1-3.7-.1-6.3-.1h-2.3c-1.1 0-1.9 0-3.3.1-.2-.1-.2-.5-.1-.6l.8-.1c1.5-.2 1.5-.5 1.5-3.1V175zm14.4 0c0-2.6-.1-3-1.5-3.2l-.4-.1c-.2-.1-.1-.6.1-.6 1.1.1 1.9.1 3 .1h4.7c1.6 0 3.1 0 3.4-.1.2.4.3 2.2.4 3.3-.1.2-.5.2-.6.1-.4-1.2-.6-2.1-1.9-2.4-.5-.1-1.3-.2-2.4-.2h-1.8c-.8 0-.8.1-.8 1v5c0 .7.1.7.8.7h1.5c1.1 0 1.8-.1 2.1-.2.3-.1.5-.3.6-.9l.2-1c.1-.2.6-.2.7 0 0 .6-.1 1.6-.1 2.5 0 .9.1 1.9.1 2.4-.1.2-.5.2-.7 0l-.2-1c-.1-.5-.3-.8-.8-1-.4-.1-1-.1-1.9-.1H136c-.8 0-.8 0-.8.7v3.5c0 1.3.1 2.2.5 2.6.3.3.8.6 3 .6 1.9 0 2.7-.1 3.2-.4.5-.3 1.1-1.1 1.8-2.4.2-.1.5-.1.6.2-.2.9-.8 2.8-1.1 3.5-2.3-.1-4.5-.1-6.7-.1h-2.3c-1.1 0-1.9 0-3.4.1-.2-.1-.2-.5-.1-.6l.8-.1c1.4-.1 1.6-.5 1.6-3.1V175zm28 7c-.2-.6-.3-.6-1-.6h-3.8c-.6 0-.8.1-1 .6l-.9 2.6c-.4 1.1-.6 1.8-.6 2.1 0 .3.1.5.7.5l.8.1c.2.1.2.5 0 .6-.7-.1-1.4-.1-2.6-.1-.8 0-1.7.1-2.4.1-.2-.1-.2-.5-.1-.6l.8-.1c.6-.1 1.2-.3 1.5-1.2.5-1.2 1.2-2.8 2.2-5.6l2.6-6.8c.4-.9.5-1.4.4-1.8.6-.2 1-.6 1.3-1 .2 0 .3.1.4.2.3 1.1.7 2.3 1.1 3.4l3.4 10.1c.7 2.2 1.1 2.5 2.1 2.7l.7.1c.2.1.1.5 0 .6-1-.1-1.9-.1-3-.1-1.2 0-2.2.1-2.9.1-.2-.1-.2-.5-.1-.6l.7-.1c.5-.1.9-.2.9-.5s-.1-.7-.3-1.3l-.9-3.4zm-5-2.3c-.2.6-.2.6.5.6h3.1c.7 0 .8-.1.6-.8l-1.4-4.1c-.2-.6-.4-1.3-.6-1.6-.1.1-.3.7-.6 1.5l-1.6 4.4zm15.7 4.3c0 2.6 0 3 1.7 3.1l.7.1c.2.1.1.6-.1.6-1.4-.1-2.3-.1-3.3-.1-1.1 0-2 0-3.1.1-.2-.1-.2-.5-.1-.6l.5-.1c1.5-.2 1.5-.5 1.5-3.1v-9.3c0-2.1-.1-2.6-1.2-2.7l-.9-.1c-.2-.2-.2-.5.1-.6 1.3-.2 2.9-.2 5-.2s3.6.3 4.8 1c1.2.7 2 2 2 3.8 0 2.3-1.4 3.5-2.5 4s-2.4.8-3.5.8c-.2-.1-.2-.5 0-.5 2.7-.5 3.7-2 3.7-4.2 0-2.4-1.4-4-4.1-4-1.3 0-1.4.1-1.4.9V184zm13.6 0c0 2.6 0 3 1.7 3.1l.7.1c.2.1.1.6-.1.6-1.4-.1-2.3-.1-3.3-.1-1.1 0-2 0-3.1.1-.2-.1-.2-.5-.1-.6l.5-.1c1.5-.2 1.5-.5 1.5-3.1v-9.3c0-2.1-.1-2.6-1.2-2.7l-.9-.1c-.2-.2-.2-.5.1-.6 1.3-.2 2.9-.2 5-.2s3.6.3 4.8 1c1.2.7 2 2 2 3.8 0 2.3-1.4 3.5-2.5 4s-2.4.8-3.5.8c-.2-.1-.2-.5 0-.5 2.7-.5 3.7-2 3.7-4.2 0-2.4-1.4-4-4.1-4-1.3 0-1.4.1-1.4.9V184z"/>
    </g>
</svg>
