<svg xmlns="http://www.w3.org/2000/svg" viewBox="0 0 31 40"><title>CORE_Secure_Lock</title><path d="M28.689 13.932h-2.379v-2.618a10.772 10.772 0 0 0-10.71-10.471 10.41 10.41 0 0 0-10.47 10.471v2.618h-2.38a2.248 2.248 0 0 0-2.38 2.38v20.7a2.133 2.133 0 0 0 2.142 2.142h25.94a2.133 2.133 0 0 0 2.142-2.142v-20.7a1.916 1.916 0 0 0-1.905-2.38zm-18.089-2.618a4.88 4.88 0 0 1 5-5 4.88 4.88 0 0 1 5 5v2.618h-10v-2.618zm1.9 20.7l1.666-6.425a3.156 3.156 0 0 1-1.428-2.38 2.75 2.75 0 0 1 2.862-2.852 2.75 2.75 0 0 1 2.856 2.856 2.617 2.617 0 0 1-1.428 2.38l1.666 6.425h-6.187z" fill="#000"/></svg>